<svg height="990" width="720" xmlns="http://www.w3.org/2000/svg">
<rect height="990" fill="#555" width="720"></rect>
<text fill="#7f7" font-family="Courier New" font-size="12" xml:space="preserve">
<tspan x="10" y="26">└─┬ modernizr@3.4.0 </tspan>
<tspan x="10" y="42">  ├─┬ doctrine@1.2.3 </tspan>
<tspan x="10" y="58">  │ ├── esutils@2.0.2 </tspan>
<tspan x="10" y="74">  │ └── isarray@1.0.0 </tspan>
<tspan x="10" y="90">  ├── file@0.2.2 </tspan>
<tspan x="10" y="106">  ├── find-parent-dir@0.3.0 </tspan>
<tspan x="10" y="122">  ├── lodash@4.17.4 </tspan>
<tspan x="10" y="138">  ├─┬ mkdirp@0.5.1 </tspan>
<tspan x="10" y="154">  │ └── minimist@0.0.8 </tspan>
<tspan x="10" y="170">  ├─┬ remarkable@1.7.1 </tspan>
<tspan x="10" y="186">  │ ├─┬ argparse@0.1.16 </tspan>
<tspan x="10" y="202">  │ │ ├── underscore@1.7.0 </tspan>
<tspan x="10" y="218">  │ │ └── underscore.string@2.4.0 </tspan>
<tspan x="10" y="234">  │ └── autolinker@0.15.3 </tspan>
<tspan x="10" y="250">  ├── requirejs@2.1.22 </tspan>
<tspan x="10" y="266">  └─┬ yargs@6.6.0 </tspan>
<tspan x="10" y="282">    ├── camelcase@3.0.0 </tspan>
<tspan x="10" y="298">    ├─┬ cliui@3.2.0 </tspan>
<tspan x="10" y="314">    │ ├─┬ strip-ansi@3.0.1 </tspan>
<tspan x="10" y="330">    │ │ └── ansi-regex@2.1.1 </tspan>
<tspan x="10" y="346">    │ └── wrap-ansi@2.1.0 </tspan>
<tspan x="10" y="362">    ├── decamelize@1.2.0 </tspan>
<tspan x="10" y="378">    ├── get-caller-file@1.0.2 </tspan>
<tspan x="10" y="394">    ├─┬ os-locale@1.4.0 </tspan>
<tspan x="10" y="410">    │ └─┬ lcid@1.0.0 </tspan>
<tspan x="10" y="426">    │   └── invert-kv@1.0.0 </tspan>
<tspan x="10" y="442">    ├─┬ read-pkg-up@1.0.1 </tspan>
<tspan x="10" y="458">    │ ├─┬ find-up@1.1.2 </tspan>
<tspan x="10" y="474">    │ │ ├── path-exists@2.1.0 </tspan>
<tspan x="10" y="490">    │ │ └─┬ pinkie-promise@2.0.1 </tspan>
<tspan x="10" y="506">    │ │   └── pinkie@2.0.4 </tspan>
<tspan x="10" y="522">    │ └─┬ read-pkg@1.1.0 </tspan>
<tspan x="10" y="538">    │   ├─┬ load-json-file@1.1.0 </tspan>
<tspan x="10" y="554">    │   │ ├── graceful-fs@4.1.11 </tspan>
<tspan x="10" y="570">    │   │ ├─┬ parse-json@2.2.0 </tspan>
<tspan x="10" y="586">    │   │ │ └─┬ error-ex@1.3.1 </tspan>
<tspan x="10" y="602">    │   │ │   └── is-arrayish@0.2.1 </tspan>
<tspan x="10" y="618">    │   │ ├── pify@2.3.0 </tspan>
<tspan x="10" y="634">    │   │ └─┬ strip-bom@2.0.0 </tspan>
<tspan x="10" y="650">    │   │   └── is-utf8@0.2.1 </tspan>
<tspan x="10" y="666">    │   ├─┬ normalize-package-data@2.3.6 </tspan>
<tspan x="10" y="682">    │   │ ├── hosted-git-info@2.4.1 </tspan>
<tspan x="10" y="698">    │   │ ├─┬ is-builtin-module@1.0.0 </tspan>
<tspan x="10" y="714">    │   │ │ └── builtin-modules@1.1.1 </tspan>
<tspan x="10" y="730">    │   │ ├── semver@5.3.0 </tspan>
<tspan x="10" y="746">    │   │ └─┬ validate-npm-package-license@3.0.1 </tspan>
<tspan x="10" y="762">    │   │   ├─┬ spdx-correct@1.0.2 </tspan>
<tspan x="10" y="778">    │   │   │ └── spdx-license-ids@1.2.2 </tspan>
<tspan x="10" y="794">    │   │   └── spdx-expression-parse@1.0.4 </tspan>
<tspan x="10" y="810">    │   └── path-type@1.1.0 </tspan>
<tspan x="10" y="826">    ├── require-directory@2.1.1 </tspan>
<tspan x="10" y="842">    ├── require-main-filename@1.0.1 </tspan>
<tspan x="10" y="858">    ├── set-blocking@2.0.0 </tspan>
<tspan x="10" y="874">    ├─┬ string-width@1.0.2 </tspan>
<tspan x="10" y="890">    │ ├── code-point-at@1.1.0 </tspan>
<tspan x="10" y="906">    │ └─┬ is-fullwidth-code-point@1.0.0 </tspan>
<tspan x="10" y="922">    │   └── number-is-nan@1.0.1 </tspan>
<tspan x="10" y="938">    ├── which-module@1.0.0 </tspan>
<tspan x="10" y="954">    ├── y18n@3.2.1 </tspan>
<tspan x="10" y="970">    └── yargs-parser@4.2.1</tspan>
</text>
</svg>
